<?xml version="1.0" encoding="utf-8"?>
<!-- Generated by IcoMoon.io -->
<!DOCTYPE svg PUBLIC "-//W3C//DTD SVG 1.1//EN" "http://www.w3.org/Graphics/SVG/1.1/DTD/svg11.dtd">
<svg version="1.1" xmlns="http://www.w3.org/2000/svg" xmlns:xlink="http://www.w3.org/1999/xlink" width="48" height="32" viewBox="0 0 48 32">
<path fill="#444444" d="M46.633 16.961l0.96-0.96-0.96-0.96c-0.002-0.002-0.004-0.004-0.006-0.006l-14.635-14.637c-0.532-0.532-1.393-0.532-1.925 0s-0.532 1.393 0 1.925l12.313 12.313h-21.576l-7.844-7.842c-0.532-0.532-1.393-0.532-1.925 0s-0.532 1.393 0 1.926l5.917 5.917h-6.782l-7.844-7.842c-0.532-0.532-1.393-0.532-1.925 0s-0.532 1.393 0 1.926l7.279 7.279-7.279 7.279c-0.532 0.53-0.532 1.393 0 1.925 0.266 0.266 0.614 0.398 0.962 0.398s0.698-0.132 0.962-0.398l7.844-7.842h6.782l-5.917 5.917c-0.532 0.53-0.532 1.393 0 1.925 0.266 0.266 0.614 0.398 0.962 0.398s0.698-0.132 0.962-0.398l7.844-7.842h21.576l-12.313 12.314c-0.532 0.532-0.532 1.393 0 1.925 0.266 0.266 0.614 0.398 0.962 0.398s0.698-0.132 0.962-0.398l14.635-14.635c0.008 0 0.010-0.002 0.013-0.004z"></path>
</svg>
