<?xml version="1.0" encoding="utf-8"?>
<!-- Generator: Adobe Illustrator 19.0.0, SVG Export Plug-In . SVG Version: 6.00 Build 0)  -->
<svg version="1.1" id="Layer_1" xmlns="http://www.w3.org/2000/svg" xmlns:xlink="http://www.w3.org/1999/xlink" x="0px" y="0px"
	 viewBox="0 0 89.869 28.775" enable-background="new 0 0 89.869 28.775" xml:space="preserve">
<g>
	<path d="M44.652,0.514v0.074c-4.041,0-8.083-0.003-12.124,0.001C25.074,0.595,17.62,0.61,10.167,0.609
		c-2.721,0-5.441-0.038-8.161-0.048C1.329,0.559,1.324,0.582,1.362,1.11c0.083,1.141,0.216,2.28,0.244,3.422
		C1.64,5.965,1.565,7.399,1.579,8.833c0.039,3.78,0.157,7.56,0.133,11.339c-0.016,2.49-0.223,4.979-0.346,7.469
		c-0.023,0.471,0.047,0.548,0.656,0.614c0.341,0.037,0.688,0.06,1.033,0.056c5.957-0.068,11.913,0.117,17.871,0.012
		c3.125-0.055,6.254,0.006,9.382,0.005c7.17-0.003,14.34-0.021,21.51-0.016c10.44,0.008,20.88,0.035,31.321,0.041
		c1.617,0.001,3.235-0.064,4.852-0.095c0.367-0.006,0.472-0.132,0.457-0.413c-0.048-0.899-0.106-1.799-0.076-2.698
		c0.078-2.332,0.294-4.664,0.286-6.996C88.643,13.605,88.5,9.059,88.44,4.513c-0.015-1.121-0.068-2.231-0.362-3.333
		c-0.176-0.655-0.151-0.665-1.014-0.665c-6.023-0.002-12.046-0.001-18.069-0.001H44.652z M81.004,0h1.887h2.737h3.586
		c0.096,0.145,0.261,0.286,0.278,0.437c0.113,1.004,0.26,2.009,0.275,3.015c0.059,4.022,0.092,8.044,0.101,12.067
		c0.005,2.454-0.035,4.908-0.086,7.362c-0.037,1.773-0.125,3.545-0.192,5.317c-0.008,0.202-0.023,0.395-0.388,0.405
		c-0.692,0.017-1.382,0.065-2.073,0.067c-2.357,0.009-4.714,0.002-7.072,0.005c-1.808,0.002-3.616,0.017-5.425,0.016
		c-5.785-0.004-11.57-0.024-17.356-0.015c-7.343,0.012-14.686,0.09-22.029,0.061c-11.13-0.044-22.263,0.181-33.392-0.128
		c-0.729-0.021-1.395-0.069-1.802-0.502c0.13-0.298,0.308-0.547,0.338-0.806c0.068-0.592,0.083-1.189,0.086-1.784
		c0.025-5.045,0.094-10.089-0.255-15.13C0.183,9.818,0.024,9.251,0.017,8.682C-0.01,6.762,0,4.84,0.014,2.92
		c0.002-0.295,0.133-0.589,0.154-0.885c0.019-0.26,0.31-0.556-0.131-0.786C-0.011,1.224,0.045,1.051,0.09,0.958
		c0.048-0.097,0.193-0.175,0.207-0.27c0.06-0.402,0.39-0.468,0.833-0.471c2.374-0.016,4.747-0.061,7.121-0.065
		c6.652-0.01,13.303-0.006,19.955-0.003c0.911,0,1.823,0.048,2.733,0.035c1.02-0.014,2.038-0.102,3.057-0.105
		c3.978-0.013,7.956-0.011,11.934-0.002c6.619,0.016,13.239,0.052,19.859,0.06c4.26,0.006,8.521-0.017,12.781-0.039
		C79.382,0.094,80.193,0.034,81.004,0"/>
</g>
<path d="M44.652,0.515h24.344c6.023,0,12.045-0.001,18.069,0c0.862,0.001,0.838,0.01,1.013,0.666c0.295,1.1,0.348,2.211,0.362,3.332
	c0.06,4.546,0.204,9.092,0.219,13.638c0.007,2.332-0.208,4.664-0.286,6.997c-0.03,0.898,0.028,1.798,0.075,2.697
	c0.016,0.281-0.09,0.407-0.456,0.414c-1.618,0.03-3.236,0.095-4.853,0.095c-10.44-0.007-20.881-0.034-31.321-0.042
	c-7.17-0.004-14.339,0.014-21.51,0.016c-1.084,0.001-2.17-0.006-3.254-0.013c-2.043-0.014-4.087-0.027-6.128,0.009
	c-3.183,0.056-6.365,0.03-9.547,0.003c-2.774-0.024-5.549-0.046-8.324-0.016c-0.344,0.004-0.692-0.019-1.033-0.056
	c-0.608-0.065-0.678-0.143-0.655-0.614c0.122-2.49,0.329-4.979,0.346-7.468c0.023-3.78-0.095-7.56-0.134-11.34
	C1.565,7.4,1.641,5.965,1.606,4.532C1.579,3.39,1.445,2.251,1.363,1.111C1.324,0.582,1.329,0.559,2.007,0.562
	c2.72,0.009,5.439,0.047,8.16,0.047c7.454,0.001,14.908-0.014,22.362-0.02c4.041-0.003,8.082,0,12.123,0V0.515z M85.629,0h-2.737
	h-1.888c-0.811,0.034-1.622,0.095-2.433,0.098c-4.261,0.023-8.521,0.045-12.782,0.04C59.17,0.129,52.55,0.094,45.93,0.077
	c-3.978-0.009-7.955-0.01-11.934,0.002c-1.018,0.003-2.037,0.091-3.056,0.105c-0.911,0.013-1.822-0.035-2.733-0.035
	C21.555,0.146,14.903,0.142,8.251,0.152C5.878,0.156,3.504,0.201,1.13,0.218C0.687,0.22,0.357,0.286,0.297,0.688
	c-0.014,0.095-0.158,0.173-0.206,0.27C0.045,1.051-0.01,1.224,0.038,1.249c0.441,0.23,0.149,0.526,0.13,0.787
	C0.147,2.332,0.016,2.625,0.014,2.92C0,4.841-0.01,6.762,0.017,8.682c0.008,0.569,0.166,1.136,0.205,1.706
	c0.349,5.04,0.281,10.084,0.256,15.129c-0.004,0.595-0.018,1.192-0.087,1.785c-0.029,0.258-0.208,0.507-0.338,0.805
	c0.408,0.433,1.074,0.482,1.803,0.502c7.398,0.205,14.797,0.175,22.198,0.144c3.731-0.015,7.462-0.03,11.194-0.016
	c7.343,0.029,14.686-0.049,22.029-0.06c5.785-0.009,11.57,0.011,17.356,0.014c1.808,0.001,3.616-0.014,5.425-0.016
	c0.893-0.001,1.788,0,2.682,0c1.463,0.001,2.926,0.002,4.39-0.005c0.69-0.002,1.381-0.05,2.072-0.067
	c0.366-0.009,0.38-0.203,0.388-0.404c0.067-1.773,0.156-3.545,0.193-5.318c0.05-2.454,0.091-4.908,0.085-7.362
	c-0.008-4.022-0.041-8.045-0.101-12.067c-0.015-1.006-0.162-2.011-0.275-3.016c-0.017-0.15-0.181-0.29-0.277-0.436H85.629z"/>
</svg>
