<svg xmlns="http://www.w3.org/2000/svg" style="display: none;">  
    <symbol id="icon-arrow" viewBox="0 0 512 512">
      <path d="m494 266l10-10-10-10c0 0 0 0 0 0l-152-153c-6-5-15-5-21 0-5 6-5 15 0 20l129 129-225 0-82-82c-6-6-15-6-20 0-6 6-6 14 0 20l62 62-71 0-82-82c-6-6-15-6-20 0-6 6-6 14 0 20l76 76-76 76c-6 5-6 14 0 20 3 3 6 4 10 4 4 0 7-1 10-4l82-82 71 0-62 62c-6 5-6 14 0 20 3 3 6 4 10 4 3 0 7-1 10-4l82-82 225 0-129 129c-5 5-5 14 0 20 3 3 7 4 10 4 4 0 8-1 10-4l153-153c0 0 0 0 0 0z"/>
    </symbol>
  
</svg>